<svg xmlns="http://www.w3.org/2000/svg" width="512" height="512" viewBox="0 0 512 512" fill="none">
  <rect width="512" height="512" rx="112" fill="#C17B80"/>
  <circle cx="256" cy="256" r="168" fill="#EDF3EB"/>
  <path d="M136.869 90.742C131.403 91.675 122.572 93.671 118 95.5C115.5 96.5 115.5 96.5 114 97.5C113.24 98.007 93.6694 110.075 85.5361 119.275C75.4028 130.742 68.7361 143.142 64.6028 157.808C58.8694 178.875 59.0028 175.542 57.6694 305.142C57.0028 360.742 56.0694 373.142 50.2028 395.808C42.8694 424.742 28.7361 446.075 10.2028 455.942C5.1361 458.608 4.7361 459.008 8.20277 458.342C21.0028 455.942 33.0028 448.342 45.1361 435.275C54.7361 424.875 61.5361 413.008 66.6028 397.808C72.3361 380.742 73.5361 373.542 76.2028 341.142C78.7361 312.875 80.8694 301.942 86.8694 288.742L91.4028 279.142H103.136C123.003 279.142 146.469 274.475 158.869 268.208C167.003 263.942 177.136 256.075 183.403 249.008C189.803 241.675 198.736 224.475 201.403 214.208C203.269 207.275 203.269 207.142 200.469 207.675C198.869 208.075 191.536 209.008 184.203 209.942C168.603 211.808 161.269 214.075 174.203 213.008C179.003 212.608 184.203 212.075 185.803 211.675C190.069 210.875 190.603 212.875 188.203 220.075C181.136 240.608 166.203 257.808 147.403 267.008C141.003 270.075 131.803 273.408 126.736 274.475C117.003 276.608 94.2028 277.142 94.2028 275.408C94.2028 271.008 115.669 244.075 126.336 235.142C135.269 227.675 148.469 219.808 156.736 217.008C160.603 215.808 170.267 212.9 170 212.5C169.2 211.833 146.869 218.875 140.203 222.208C128.869 227.808 117.136 236.475 107.936 245.942C96.0694 258.075 94.0694 260.742 85.9361 274.208L79.5361 284.875V237.008C79.5361 169.542 82.2028 152.208 96.7361 125.808C103.003 114.342 115.803 101.675 125.803 97.0084C135.936 92.3417 153.936 91.0084 162.469 94.3417C172.336 98.0751 179.669 106.742 184.069 120.075C186.603 127.675 191.403 132.475 196.336 132.475C204.336 132.475 209.403 126.342 207.936 118.608C206.869 113.542 196.603 103.675 187.403 99.0084C173.269 91.9417 151.403 88.3417 136.869 90.742Z" fill="#6B6D51" transform="translate(151 20) scale(0.72)"/>
</svg>
