<svg width="130" height="130" viewBox="0 0 130 130" fill="none" xmlns="http://www.w3.org/2000/svg">
<g clip-path="url(#clip0_24068_10)">
<path d="M64.4674 0H65.7408C66.1464 0.188836 66.5952 0.241664 67.0293 0.353785C67.8895 0.580346 68.7153 0.921718 69.4846 1.3687C70.8437 2.16802 72.3246 3.17655 73.5655 4.15383C75.6653 5.80746 77.2218 7.22173 79.8846 8.00166C84.4118 9.32794 88.7459 7.60221 93.3639 7.73373C98.6108 7.88309 100.442 11.056 102.324 15.4501C102.829 16.6251 103.25 17.9434 103.777 19.1045C105.412 22.7044 107.758 24.8801 111.37 26.4254C115.03 28.0255 120.094 29.3646 121.731 33.417C122.75 35.9389 122.265 38.3866 122.022 40.988C121.784 43.5442 121.226 46.678 121.725 49.23C122.293 51.7646 123.803 53.8 125.348 55.8135C126.056 56.7364 126.705 57.7171 127.392 58.6289C128.482 60.0735 129.446 61.471 129.73 63.2959C129.778 63.6054 129.886 64.2383 130 64.5176V65.6824C129.542 66.8656 129.642 67.8577 128.906 69.1114C127.822 70.9147 126.598 72.6788 125.27 74.3355C123.793 75.9935 122.99 77.4205 122.166 79.4625C119.654 85.6883 125.559 94.8886 119.425 99.6519C115.765 102.358 111.099 103.098 107.495 105.861C102.758 109.493 102.654 117.85 97.7526 121.115C93.3448 124.052 85.3049 120.41 80.3131 121.797C76.3693 122.893 73.1123 126.541 69.6065 128.584C68.8384 129.04 68.0132 129.391 67.1525 129.629C66.8694 129.708 66.0467 129.902 65.8106 130H64.1938C63.3525 129.53 61.7947 129.473 60.64 128.7C59.1367 127.693 57.446 126.679 56.0486 125.53C54.0512 123.888 52.1626 122.428 49.5907 121.839C44.4121 120.34 37.1771 124.057 32.45 121.197C27.1069 117.964 27.3809 108.896 21.8669 105.377C19.2573 103.711 16.2058 102.558 13.4146 101.35C3.34172 96.9935 10.4012 87.0264 7.90334 79.4263C7.33986 77.7061 6.42738 76.6892 5.40641 75.2039C4.10791 73.3148 2.17351 71.1179 1.11824 69.0663C0.76568 68.37 0.497303 67.6343 0.318768 66.8745C0.217642 66.4276 0.15804 65.9674 0 65.5364V64.3703C0.151294 64.0694 0.263263 63.341 0.345158 62.9729C0.505977 62.2292 0.775182 61.513 1.14415 60.8475C1.93581 59.4776 2.81085 58.1576 3.76433 56.8949C5.89965 54.083 7.49214 52.618 8.28407 48.9319C9.43224 43.9901 6.05885 37.0088 8.75164 32.4645C12.3549 27.1286 19.6273 27.6443 23.849 22.8257C27.7777 18.3413 27.8494 9.85359 34.3239 7.98218C36.0794 7.47475 38.2389 7.72421 39.9868 7.91496L44.4335 8.38259C49.0805 8.8386 51.2283 8.22821 54.9333 5.32264C56.8912 3.78708 59.1066 2.16719 61.2921 0.981602C62.3424 0.411811 63.3945 0.357029 64.4674 0Z" fill="#289AFF"/>
<path d="M88.3425 43.5723C88.4313 43.567 88.5202 43.5631 88.6097 43.5607C90.5559 43.5088 92.4424 44.2386 93.8465 45.587C95.2005 46.88 95.9546 48.7509 95.9781 50.6068C96.0073 52.9383 95.0164 54.6283 93.4085 56.2412C86.6794 62.993 79.9293 69.7328 73.1849 76.4683L67.0594 82.5741C65.8318 83.7979 64.5711 85.2268 63.1851 86.25C57.5626 90.4033 53.6299 85.1588 50.0141 81.542L41.8086 73.3357L38.0871 69.6096C37.3185 68.8422 36.5414 68.0817 35.8034 67.2851C33.5329 64.8349 33.5159 60.5372 35.6637 58.0092C36.9424 56.5294 38.7583 55.6203 40.7092 55.4834C44.4013 55.2012 46.0181 57.3786 48.4123 59.7228L55.7751 67.0338C56.1613 67.4127 58.7519 70.2634 59.1679 70.0108C60.1019 69.4433 61.2103 68.2138 62.0109 67.4114L65.9429 63.4739L78.5055 50.9068L81.8082 47.5914C83.8623 45.5296 85.2632 43.8163 88.3425 43.5723Z" fill="#FEFEFE"/>
</g>
<defs>
<clipPath id="clip0_24068_10">
<rect width="130" height="130" fill="white"/>
</clipPath>
</defs>
</svg>
