<svg width="209" height="371" viewBox="0 0 209 371" fill="none" xmlns="http://www.w3.org/2000/svg">
<path d="M136.869 0.74173C131.403 1.67506 122.572 3.67117 118 5.50006C115.5 6.50006 115.5 6.50006 114 7.50006C113.24 8.00684 93.6694 20.0751 85.5361 29.2751C75.4028 40.7417 68.7361 53.1417 64.6028 67.8084C58.8694 88.8751 59.0028 85.5417 57.6694 215.142C57.0028 270.742 56.0694 283.142 50.2028 305.808C42.8694 334.742 28.7361 356.075 10.2028 365.942C5.1361 368.608 4.7361 369.008 8.20277 368.342C21.0028 365.942 33.0028 358.342 45.1361 345.275C54.7361 334.875 61.5361 323.008 66.6028 307.808C72.3361 290.742 73.5361 283.542 76.2028 251.142C78.7361 222.875 80.8694 211.942 86.8694 198.742L91.4028 189.142H103.136C123.003 189.142 146.469 184.475 158.869 178.208C167.003 173.942 177.136 166.075 183.403 159.008C189.803 151.675 198.736 134.475 201.403 124.208C203.269 117.275 203.269 117.142 200.469 117.675C198.869 118.075 191.536 119.008 184.203 119.942C168.603 121.808 161.269 124.075 174.203 123.008C179.003 122.608 184.203 122.075 185.803 121.675C190.069 120.875 190.603 122.875 188.203 130.075C181.136 150.608 166.203 167.808 147.403 177.008C141.003 180.075 131.803 183.408 126.736 184.475C117.003 186.608 94.2028 187.142 94.2028 185.408C94.2028 181.008 115.669 154.075 126.336 145.142C135.269 137.675 148.469 129.808 156.736 127.008C160.603 125.808 170.267 122.9 170 122.5C169.2 121.833 146.869 128.875 140.203 132.208C128.869 137.808 117.136 146.475 107.936 155.942C96.0694 168.075 94.0694 170.742 85.9361 184.208L79.5361 194.875V147.008C79.5361 79.5417 82.2028 62.2084 96.7361 35.8084C103.003 24.3417 115.803 11.6751 125.803 7.00839C135.936 2.34173 153.936 1.0084 162.469 4.34174C172.336 8.07507 179.669 16.7417 184.069 30.0751C186.603 37.6751 191.403 42.4751 196.336 42.4751C204.336 42.4751 209.403 36.3417 207.936 28.6084C206.869 23.5417 196.603 13.6751 187.403 9.00839C173.269 1.94173 151.403 -1.65827 136.869 0.74173Z" fill="#6B6D51"/>
<path d="M0.602643 370.075C1.53598 370.475 2.73598 370.342 3.13598 369.942C3.66931 369.542 2.86931 369.142 1.40264 369.275C-0.0640235 369.275 -0.464024 369.675 0.602643 370.075Z" fill="#6B6D51"/>
</svg>
