<svg width="693" height="693" viewBox="0 0 693 693" fill="none" xmlns="http://www.w3.org/2000/svg">
<path d="M328.532 0C692.735 1.62152e-07 692.735 6.10352e-05 692.735 328.561C692.735 686.033 692.735 692.627 364.037 692.627C0 686.033 0 686.033 0 364.06C0.000123978 3.05176e-05 0 -1.46259e-07 328.532 0Z" fill="#CECECE"/>
<path d="M330.363 420.285C356.527 417.87 394.683 422.569 419.926 429.303C494.156 448.841 557.542 497.146 596.065 563.528C604.192 577.533 642.921 653.138 640.537 655.033C579.537 703.533 441.539 690.533 362.539 692.033C350.539 692.033 332.037 691.198 319.538 691.033C244.038 690.033 100.537 692.033 51.5373 650.033C49.5371 646.033 90.7137 573.533 96.6605 563.396C106.043 547.402 116.909 532.325 129.112 518.361C181.275 458.776 251.699 425.485 330.363 420.285Z" fill="#FEFEFE"/>
<path d="M338.62 135.04C412.429 130.745 475.742 187.113 479.993 260.915C484.249 334.718 427.835 397.984 354.02 402.198C280.262 406.406 217.046 350.057 212.795 276.313C208.545 202.569 264.867 139.332 338.62 135.04Z" fill="#FEFEFE"/>
</svg>
