<svg width="915" height="915" viewBox="0 0 915 915" fill="none" xmlns="http://www.w3.org/2000/svg">
<path d="M151.255 667.282C227.952 779.244 360.846 838.021 487.002 826.266C640.206 812.026 746.435 732.08 805.69 586.429C813.049 568.174 821.029 535.107 829.631 487.225C831.496 476.447 837.505 466.826 846.374 460.423C855.242 454.019 866.265 451.342 877.083 452.963L879.807 453.393C890.506 454.982 900.136 460.764 906.586 469.471C913.036 478.178 915.778 489.1 914.213 499.841C903.031 575.916 883.152 637.846 854.575 685.632C750.783 859.811 554.954 946.829 355.685 903.249C266.42 883.752 188.289 837.83 121.293 765.482C98.7375 741.207 84.6405 724.96 79.0017 716.741C73.4585 708.617 63.4234 689.646 48.8963 659.828C5.69739 571.233 -8.87751 481.778 5.1717 391.462C36.5674 189.902 188.528 38.8028 388.371 4.9704C443.325 -4.39563 508.267 -0.524902 583.196 16.5824C593.767 18.9855 602.959 25.4626 608.762 34.5968C614.565 43.7311 616.507 54.779 614.162 65.324L613.445 68.0477C611.07 78.7259 604.61 88.0502 595.447 94.025C586.283 99.9999 575.145 102.151 564.416 100.017C516.63 90.6505 482.893 86.1108 463.205 86.3975C305.987 88.9779 193.068 159.128 124.447 296.846C67.8197 410.242 74.5576 555.463 151.255 667.282Z" fill="#BCBCBC"/>
</svg>
