<svg width="703" height="650" viewBox="0 0 703 650" fill="none" xmlns="http://www.w3.org/2000/svg">
<path d="M418.112 568.386C463.031 555.866 499.54 530.969 527.638 493.696C558.7 457.666 579.152 410.645 588.996 352.633C590.325 344.784 594.303 337.623 600.271 332.332C606.24 327.041 613.844 323.936 621.826 323.531L622.972 323.388C626.782 323.198 630.608 323.795 634.144 325.131C637.679 326.467 640.827 328.505 643.334 331.082C645.842 333.659 647.64 336.704 648.585 339.973C649.53 343.242 649.596 346.645 648.777 349.909L619.245 466.889L582.115 528.962C538.056 577.417 487.498 612.253 430.441 633.47L356.898 647.089C266.486 656.264 188.881 634.33 124.082 581.288C39.3091 511.903 -2.02627 422.161 0.0763319 312.062C1.03206 261.887 18.0919 207.985 51.2557 150.355C71.8994 114.373 93.69 104.624 115.767 76.8128C119.877 71.6519 130.103 63.624 146.446 52.7288C193.181 21.668 245.03 4.32168 301.991 0.689952C347.388 -2.1772 390.587 3.89166 431.588 18.8964C433.586 19.6536 435.316 20.9814 436.565 22.7146C437.814 24.4479 438.526 26.51 438.612 28.6446C439.281 50.1483 435.506 62.3814 427.287 65.3441C415.627 69.6448 401.721 70.3138 385.569 67.3511C310.64 54.0667 245.316 64.5797 189.597 98.8899C122.218 140.464 81.0743 198.81 66.165 273.929C51.2556 348.571 67.7898 418.147 115.767 482.658C182.955 572.878 275.9 605.898 394.601 581.718C402.916 579.998 410.753 575.553 418.112 568.386Z" fill="#63BA8A"/>
<path d="M332.097 354.497L645.193 23.0548C650.99 16.9511 658.801 13.1527 667.181 12.3621C675.562 11.5715 683.946 13.8421 690.782 18.7541L691.355 19.1841C694.45 21.4902 697.022 24.4245 698.902 27.7944C700.783 31.1643 701.931 34.8937 702.269 38.7381C702.607 42.5824 702.129 46.4549 700.866 50.1015C699.603 53.7481 697.583 57.0865 694.939 59.8978L332.097 443.666C330.71 445.118 328.813 445.974 326.807 446.054C324.801 446.135 322.843 445.432 321.345 444.096L182.286 318.945C176.491 313.677 172.932 306.396 172.345 298.605C171.758 290.815 174.188 283.11 179.132 277.084L181.569 274.217C185.685 269.213 191.615 266.042 198.063 265.398C204.51 264.753 210.95 266.687 215.975 270.777L319.481 355.358C321.307 356.827 323.619 357.554 325.957 357.395C328.295 357.235 330.487 356.201 332.097 354.497Z" fill="#63BA8A"/>
</svg>
